<svg xmlns="http://www.w3.org/2000/svg" xmlns:xlink="http://www.w3.org/1999/xlink" width="1920" zoomAndPan="magnify" viewBox="0 0 1440 809.999993" height="1080" preserveAspectRatio="xMidYMid meet" version="1.0"><defs><clipPath id="f98ba49e73"><path d="M 152.730469 34.003906 L 1287.480469 34.003906 L 1287.480469 92 L 152.730469 92 Z M 152.730469 34.003906 " clip-rule="nonzero"/></clipPath><clipPath id="57021da9ff"><path d="M 152.730469 718 L 1287.480469 718 L 1287.480469 775.753906 L 152.730469 775.753906 Z M 152.730469 718 " clip-rule="nonzero"/></clipPath><clipPath id="9f5a3f4a6b"><path d="M 152.730469 156 L 159 156 L 159 654 L 152.730469 654 Z M 152.730469 156 " clip-rule="nonzero"/></clipPath><clipPath id="431367f518"><path d="M 1281 156 L 1287.480469 156 L 1287.480469 654 L 1281 654 Z M 1281 156 " clip-rule="nonzero"/></clipPath></defs><g clip-path="url(#f98ba49e73)"><path fill="#cfa86d" d="M 1287.285156 88.828125 L 1287.285156 36.804688 C 1287.285156 35.257812 1286.035156 34 1284.484375 34 L 155.488281 34 C 153.9375 34 152.6875 35.257812 152.6875 36.804688 L 152.6875 88.828125 C 152.6875 90.375 153.941406 91.632812 155.488281 91.632812 C 157.035156 91.632812 158.292969 90.375 158.292969 88.828125 L 158.292969 39.609375 C 158.292969 39.609375 1219.910156 39.609375 1281.679688 39.609375 C 1281.679688 39.609375 1281.679688 88.828125 1281.679688 88.828125 C 1281.679688 90.375 1282.9375 91.632812 1284.484375 91.632812 C 1286.03125 91.632812 1287.285156 90.375 1287.285156 88.828125 Z M 1287.285156 88.828125 " fill-opacity="1" fill-rule="evenodd"/></g><g clip-path="url(#57021da9ff)"><path fill="#cfa86d" d="M 1281.679688 721.160156 L 1281.679688 770.382812 C 1281.679688 770.382812 158.292969 770.382812 158.292969 770.382812 C 158.292969 770.382812 158.292969 721.160156 158.292969 721.160156 C 158.292969 719.613281 157.035156 718.359375 155.488281 718.359375 C 153.941406 718.359375 152.6875 719.613281 152.6875 721.160156 L 152.6875 773.183594 C 152.6875 774.734375 153.9375 775.988281 155.488281 775.988281 L 1284.484375 775.988281 C 1286.035156 775.988281 1287.285156 774.734375 1287.285156 773.183594 L 1287.285156 721.160156 C 1287.285156 719.613281 1286.03125 718.359375 1284.484375 718.359375 C 1282.9375 718.359375 1281.679688 719.613281 1281.679688 721.160156 Z M 1281.679688 721.160156 " fill-opacity="1" fill-rule="evenodd"/></g><g clip-path="url(#9f5a3f4a6b)"><path fill="#cfa86d" d="M 152.695312 159.101562 L 152.695312 650.914062 C 152.695312 652.457031 153.941406 653.71875 155.5 653.71875 C 157.042969 653.71875 158.300781 652.457031 158.300781 650.914062 L 158.300781 159.101562 C 158.300781 157.5625 157.042969 156.296875 155.5 156.296875 C 153.941406 156.296875 152.695312 157.5625 152.695312 159.101562 Z M 152.695312 159.101562 " fill-opacity="1" fill-rule="evenodd"/></g><g clip-path="url(#431367f518)"><path fill="#cfa86d" d="M 1281.691406 159.101562 L 1281.691406 650.914062 C 1281.691406 652.457031 1282.9375 653.71875 1284.496094 653.71875 C 1286.039062 653.71875 1287.296875 652.457031 1287.296875 650.914062 L 1287.296875 159.101562 C 1287.296875 157.5625 1286.039062 156.296875 1284.496094 156.296875 C 1282.9375 156.296875 1281.691406 157.5625 1281.691406 159.101562 Z M 1281.691406 159.101562 " fill-opacity="1" fill-rule="evenodd"/></g></svg>